<?xml version="1.0" encoding="UTF-8" standalone="no"?>
<svg
   width="512"
   height="512"
   viewBox="0 0 135.46667 135.46667"
   version="1.1"
   id="svg8"
   inkscape:version="1.2 (dc2aedaf03, 2022-05-15)"
   sodipodi:docname="icon-vector.svg"
   inkscape:export-filename="F:\Design\Inkscape\Logo.png"
   inkscape:export-xdpi="96"
   inkscape:export-ydpi="96"
   xmlns:inkscape="http://www.inkscape.org/namespaces/inkscape"
   xmlns:sodipodi="http://sodipodi.sourceforge.net/DTD/sodipodi-0.dtd"
   xmlns:xlink="http://www.w3.org/1999/xlink"
   xmlns="http://www.w3.org/2000/svg"
   xmlns:svg="http://www.w3.org/2000/svg"
   xmlns:rdf="http://www.w3.org/1999/02/22-rdf-syntax-ns#"
   xmlns:cc="http://creativecommons.org/ns#"
   xmlns:dc="http://purl.org/dc/elements/1.1/">
  <defs
     id="defs2">
    <linearGradient
       inkscape:collect="always"
       id="linearGradient18425">
      <stop
         style="stop-color:#17ffb2;stop-opacity:1;"
         offset="0"
         id="stop18421" />
      <stop
         style="stop-color:#10b981;stop-opacity:1;"
         offset="1"
         id="stop18423" />
    </linearGradient>
    <marker
       style="overflow:visible"
       id="marker6243"
       refX="0"
       refY="0"
       orient="auto"
       inkscape:stockid="Arrow1Lstart"
       inkscape:isstock="true"
       inkscape:collect="always">
      <path
         transform="matrix(0.8,0,0,0.8,10,0)"
         style="fill:#00ff00;fill-opacity:1;fill-rule:evenodd;stroke:none;stroke-width:1pt;stroke-opacity:1"
         d="M 0,0 5,-5 -12.5,0 5,5 Z"
         id="path6241" />
    </marker>
    <linearGradient
       id="linearGradient855"
       inkscape:swatch="solid">
      <stop
         style="stop-color:#000000;stop-opacity:1;"
         offset="0"
         id="stop853" />
    </linearGradient>
    <linearGradient
       inkscape:collect="always"
       xlink:href="#linearGradient18425"
       id="linearGradient2105"
       gradientUnits="userSpaceOnUse"
       gradientTransform="matrix(0.70507037,0,0,0.70507037,-4754.4666,3652.276)"
       x1="5517.9199"
       y1="1160.8984"
       x2="4667.5273"
       y2="1160.8982" />
    <linearGradient
       inkscape:collect="always"
       xlink:href="#linearGradient18425"
       id="linearGradient2107"
       gradientUnits="userSpaceOnUse"
       gradientTransform="matrix(2.6648329,0,0,2.6648329,-17975.316,13803.909)"
       x1="4384.0625"
       y1="1426.5146"
       x2="5376.1875"
       y2="1426.5146" />
  </defs>
  <sodipodi:namedview
     id="base"
     pagecolor="#ffffff"
     bordercolor="#666666"
     borderopacity="1.0"
     inkscape:pageopacity="0.0"
     inkscape:pageshadow="2"
     inkscape:zoom="0.45254834"
     inkscape:cx="171.25242"
     inkscape:cy="217.65631"
     inkscape:document-units="mm"
     inkscape:current-layer="layer1"
     inkscape:document-rotation="0"
     showgrid="false"
     inkscape:window-width="1920"
     inkscape:window-height="1051"
     inkscape:window-x="-9"
     inkscape:window-y="-9"
     inkscape:window-maximized="1"
     showborder="true"
     inkscape:object-paths="true"
     inkscape:snap-intersection-paths="true"
     inkscape:snap-smooth-nodes="true"
     showguides="false"
     units="px"
     inkscape:object-nodes="true"
     inkscape:snap-nodes="true"
     inkscape:snap-bbox="true"
     inkscape:bbox-paths="false"
     inkscape:bbox-nodes="false"
     inkscape:snap-bbox-midpoints="false"
     inkscape:snap-bbox-edge-midpoints="false"
     inkscape:snap-center="false"
     inkscape:snap-page="true"
     inkscape:showpageshadow="2"
     inkscape:pagecheckerboard="0"
     inkscape:deskcolor="#d1d1d1">
    <inkscape:grid
       type="xygrid"
       id="grid310"
       empcolor="#0000ff"
       empopacity="0.49803922"
       originx="0"
       originy="0" />
    <inkscape:grid
       type="xygrid"
       id="grid312"
       empcolor="#00ff00"
       empopacity="0.41176471"
       empspacing="10"
       units="px"
       originx="0"
       originy="0" />
  </sodipodi:namedview>
  <metadata
     id="metadata5">
    <rdf:RDF>
      <cc:Work
         rdf:about="">
        <dc:format>image/svg+xml</dc:format>
        <dc:type
           rdf:resource="http://purl.org/dc/dcmitype/StillImage" />
      </cc:Work>
    </rdf:RDF>
  </metadata>
  <g
     inkscape:label="Layer 1"
     inkscape:groupmode="layer"
     id="layer1">
    <g
       id="g2103"
       transform="matrix(0.09738794,0,0,0.09738794,192.81603,-396.47271)"
       inkscape:export-xdpi="32.62368"
       inkscape:export-ydpi="32.62368">
      <g
         id="g3300">
        <g
           id="g7780">
          <path
             id="path2099"
             style="fill:url(#linearGradient2105);fill-opacity:1.0;stroke-width:0.336882"
             d="m -1263.6701,4071.0657 a 399.72493,399.72493 0 0 0 -399.724,399.7253 399.72493,399.72493 0 0 0 399.724,399.7254 399.72493,399.72493 0 0 0 399.72532,-399.7254 399.72493,399.72493 0 0 0 -399.72532,-399.7253 z m 0,199.8627 a 199.86246,199.86246 0 0 1 199.8627,199.8626 199.86246,199.86246 0 0 1 -199.8627,199.8627 199.86246,199.86246 0 0 1 -199.8613,-199.8627 199.86246,199.86246 0 0 1 199.8613,-199.8626 z" />
          <path
             id="path2101"
             style="fill:url(#linearGradient2107);fill-opacity:1;stroke-width:0.956821;stroke-miterlimit:4;stroke-dasharray:none;marker-start:url(#marker6243)"
             d="m -4781.7559,15386.711 v 0.01 a 1510.7714,1510.7714 0 0 0 -4.6231,0 1510.7714,1510.7714 0 0 0 -1506.1464,1510.761 v 1305.022 h 755.33 l 0.057,0.131 V 16897.48 a 755.38568,755.38568 0 0 1 755.3808,-755.386 755.38568,755.38568 0 0 1 755.3868,755.386 755.38568,755.38568 0 0 1 -749.7071,755.366 1133.0784,1133.0784 0 0 0 1127.4004,-1133.059 1133.0784,1133.0784 0 0 0 -1133.0801,-1133.08 z m -755.4375,2815.807 -0.021,0.06 h -753.1309 c 0,0.147 7.9042,74.144 10.5215,193.031 0.1285,5.653 0.2337,11.41 0.332,17.264 4e-4,0 -4e-4,0.04 0,0.04 0.1021,5.855 0.186,11.806 0.2578,17.853 0,0 -4e-4,0.04 0,0.04 0.068,6.049 0.1282,12.193 0.166,18.428 v 0.04 c 0.042,6.236 0.065,12.563 0.068,18.981 v 0.04 c 0,6.418 0,12.924 -0.043,19.517 v 0.04 c -0.042,6.594 -0.082,13.273 -0.1504,20.035 0,0 4e-4,0.04 0,0.04 -0.068,6.763 -0.1544,13.609 -0.2754,20.534 v 0.04 c -4.0554,249.762 -36.549,603.031 -163.8945,913.107 0.2759,0.276 382.4867,387.206 501.3438,1083.367 v -1342.767 c -2.058,-0.624 -2.6463,-0.936 -4.5625,-1.661 -2.5678,-0.971 -5.2069,-2.161 -7.8008,-3.466 -0.4381,-0.22 -0.8688,-0.445 -1.3008,-0.67 -0.1776,-0.1 -0.3657,-0.185 -0.543,-0.28 -0.4407,-0.23 -0.8735,-0.472 -1.3086,-0.712 -0.6478,-0.359 -1.2884,-0.72 -1.9238,-1.092 -0.2079,-0.125 -0.4268,-0.235 -0.6328,-0.363 -0.4551,-0.273 -0.8796,-0.541 -1.3086,-0.811 -0.053,-0.04 -0.121,-0.07 -0.1777,-0.109 -0.2533,-0.163 -0.5091,-0.326 -0.7559,-0.485 -10.2006,-6.519 -18.6265,-14.904 -25.0664,-24.131 -0.102,-0.143 -0.2081,-0.279 -0.2988,-0.423 -0.3666,-0.531 -0.7118,-1.067 -1.0645,-1.602 -0.3023,-0.462 -0.6118,-0.924 -0.9062,-1.389 -0.2797,-0.433 -0.5378,-0.869 -0.8028,-1.306 -0.3783,-0.617 -0.7479,-1.236 -1.1074,-1.858 -0.1701,-0.295 -0.3364,-0.59 -0.5019,-0.886 -5.8953,-10.471 -9.4046,-21.542 -10.7422,-32.014 -0.042,-0.227 -0.046,-0.448 -0.068,-0.672 -0.2041,-1.556 -0.3652,-3.105 -0.4804,-4.641 -0.4559,-5.968 -0.2087,-12.027 0.5468,-17.882 0.079,-0.608 0.1632,-1.213 0.2539,-1.819 0.076,-0.52 0.1513,-1.044 0.2344,-1.56 0.6248,-3.805 1.4908,-7.551 2.5801,-11.217 0,0 0,-0.04 0,-0.04 1.3689,-4.601 3.0978,-9.069 5.166,-13.36 0.189,-0.387 0.3653,-0.781 0.5547,-1.166 0,-0.04 0.043,-0.04 0.043,-0.05 0.4157,-0.85 0.8663,-1.693 1.33,-2.535 2.4435,-4.495 5.2525,-8.716 8.3536,-12.625 0,0 0,-0.04 0.043,-0.04 3.6647,-4.726 7.6202,-8.878 12.1485,-12.67 2.5719,-2.154 5.2266,-4.134 7.9199,-5.951 0.083,-0.06 0.167,-0.121 0.2539,-0.174 0.087,-0.06 0.169,-0.117 0.2598,-0.174 0.06,-0.04 0.125,-0.08 0.1855,-0.125 0.7162,-0.485 1.4223,-0.942 2.1328,-1.375 0.291,-0.178 0.5824,-0.352 0.8731,-0.529 0.049,-0.04 0.099,-0.06 0.1484,-0.09 0.3213,-0.193 0.6448,-0.394 0.9687,-0.586 0.276,-0.182 0.5594,-0.361 0.8731,-0.541 0.3666,-0.208 0.7999,-0.43 1.1934,-0.647 0.5419,-0.298 1.0845,-0.595 1.6269,-0.885 0.098,-0.05 0.1773,-0.101 0.2793,-0.146 6.124,-3.235 12.2395,-5.602 17.9023,-7.035 0.042,0 0.042,0 0.061,-0.04 0.1739,-0.05 0.257,-0.08 0.4414,-0.133 1.46,-0.407 3.1904,-0.811 5.0234,-1.186 2.778,-0.615 5.8968,-1.182 9.8204,-1.509 3.5383,-0.295 7.5176,-0.514 14.4863,-0.174 5.3321,0.257 12.5241,1.54 17.1465,2.834 1.7684,0.495 2.9662,0.859 4.1953,1.248 0.768,0.238 1.4303,0.439 2.6133,0.861 2.6452,0.946 1.656,0.623 3.9804,1.52 0.2759,0.106 2.4591,1.046 2.7403,1.179 0.5608,0.273 1.1007,0.513 1.6464,0.774 2.1695,1.036 4.4581,2.201 6.3301,3.283 0.731,0.422 1.3189,0.844 1.9883,1.213 1.2015,0.659 2.2643,1.404 3.4492,2.201 2.4284,1.635 4.7112,3.361 6.9434,5.201 0.4112,0.329 0.823,0.661 1.2305,1.002 3.2655,2.734 6.2262,5.663 9.0019,8.85 4.9878,5.626 9.384,11.995 12.8809,18.986 4.0977,8.193 6.9282,17.075 8.3886,26.277 0,0 0,0 0,0 0.1738,1.092 0.3264,2.188 0.4609,3.288 0.7238,5.746 0.9468,11.685 0.5,17.535 -0.1285,1.614 -0.2995,3.242 -0.5176,4.879 0,0.121 -0.041,0.238 -0.041,0.359 -0.049,0.395 -0.1209,0.789 -0.1738,1.184 -1.0809,7.58 -3.2874,15.444 -6.7109,23.15 -0.1248,0.287 -0.2501,0.575 -0.3789,0.861 -0.064,0.144 -0.1331,0.284 -0.1973,0.43 -0.5658,1.237 -1.1558,2.468 -1.7832,3.691 -8.8305,17.218 -24.2065,32.949 -44.8457,41.459 -0.7665,0.318 -0.9513,0.421 -1.7344,0.717 -0.2532,0.08 -0.9004,0.336 -0.9004,0.336 -1.3289,0.561 -2.9652,1.157 -4.084,1.506 v 1342.731 c 118.8696,-696.232 501.1488,-1083.172 501.3457,-1083.372 -95.5128,-232.568 -137.6666,-489.432 -154.4843,-708.699 -1.2446,-16.229 -2.3496,-32.25 -3.3282,-48.043 0,0 0,-0.04 0,-0.04 -0.9782,-15.79 -1.8317,-31.35 -2.5664,-46.654 -4e-4,0 0,0 0,-0.04 -0.3704,-7.652 -0.7022,-15.238 -1.0136,-22.758 v -0.04 c -0.068,-1.721 -0.1255,-3.401 -0.1973,-5.115 -0.8265,-20.774 -1.4584,-41.062 -1.8964,-60.725 -0.155,-7.081 -0.2901,-14.086 -0.4024,-21.011 -0.2305,-14.151 -0.3698,-27.959 -0.4258,-41.418 -0.057,-12.939 -0.046,-25.553 0.041,-37.803 0.1248,-18.76 0.3868,-36.688 0.7618,-53.697 0.9978,-45.309 2.7623,-84.101 4.5644,-114.77 4e-4,0 0,-0.04 0,-0.04 2.925,-49.776 5.9441,-78.106 5.9531,-78.187 z m -404.8261,2322.496 v 0 0.01 c 0,0 0.013,-0.01 0.016,-0.01 z m 0,0.01 c -4.2058,3.356 -35.0902,29.057 -36.2168,61.315 -0.042,0.787 -0.041,1.577 -0.041,2.373 0,0.783 0.042,1.57 0.08,2.361 0.9823,16.842 10.5072,35.204 36.1778,52.955 z m 56.4648,-0.01 h -0.014 c 0,0 0.011,0.01 0.014,0.01 z m 0,0.02 v 118.996 c 26.8887,-18.593 36.0629,-37.857 36.2598,-55.343 0,-0.784 -2e-4,-1.562 -0.041,-2.338 -1.129,-32.264 -32.0261,-57.971 -36.2188,-61.315 z"
             transform="scale(0.26458333)" />
        </g>
      </g>
    </g>
    <rect
       style="fill:none;stroke-width:0.264584"
       id="rect508"
       width="135.46666"
       height="135.46666"
       x="3.5603841e-06"
       y="3.5603841e-06" />
  </g>
</svg>
