<?xml version="1.0" encoding="UTF-8" standalone="no"?>
<svg
   width="35"
   height="35"
   viewBox="0 0 35 35"
   fill="none"
   version="1.1"
   id="svg20741"
   sodipodi:docname="logo 1.svg"
   inkscape:version="1.2 (dc2aedaf03, 2022-05-15)"
   xmlns:inkscape="http://www.inkscape.org/namespaces/inkscape"
   xmlns:sodipodi="http://sodipodi.sourceforge.net/DTD/sodipodi-0.dtd"
   xmlns:xlink="http://www.w3.org/1999/xlink"
   xmlns="http://www.w3.org/2000/svg"
   xmlns:svg="http://www.w3.org/2000/svg">
  <sodipodi:namedview
     id="namedview20743"
     pagecolor="#ffffff"
     bordercolor="#000000"
     borderopacity="0.25"
     inkscape:showpageshadow="2"
     inkscape:pageopacity="0.0"
     inkscape:pagecheckerboard="0"
     inkscape:deskcolor="#d1d1d1"
     showgrid="false"
     inkscape:zoom="8.727718"
     inkscape:cx="32.024408"
     inkscape:cy="12.889967"
     inkscape:window-width="1920"
     inkscape:window-height="1051"
     inkscape:window-x="-9"
     inkscape:window-y="-9"
     inkscape:window-maximized="1"
     inkscape:current-layer="svg20741" />
  <g
     id="logo 1">
    <g
       id="layer1">
      <g
         id="g2103">
        <g
           id="g1786">
          <path
             id="path2099"
             d="M18.021 0C15.3535 6.20617e-06 12.7953 1.05967 10.9091 2.94587C9.02288 4.83207 7.96323 7.3903 7.96323 10.0578C7.96323 12.7253 9.02288 15.2835 10.9091 17.1697C12.7953 19.0559 15.3535 20.1156 18.021 20.1156C19.3418 20.1156 20.6497 19.8554 21.8699 19.35C23.0902 18.8445 24.199 18.1037 25.1329 17.1697C26.0669 16.2358 26.8077 15.127 27.3132 13.9067C27.8186 12.6865 28.0788 11.3786 28.0788 10.0578C28.0788 8.73698 27.8186 7.4291 27.3132 6.20884C26.8077 4.98857 26.0669 3.87981 25.1329 2.94586C24.199 2.01191 23.0902 1.27105 21.8699 0.765596C20.6497 0.260146 19.3418 -1.28867e-06 18.021 0ZM18.021 5.02889C18.6814 5.02889 19.3353 5.15897 19.9455 5.4117C20.5556 5.66442 21.11 6.03485 21.577 6.50182C22.0439 6.9688 22.4144 7.52317 22.6671 8.13331C22.9198 8.74344 23.0499 9.39738 23.0499 10.0578C23.0499 10.7182 22.9198 11.3721 22.6671 11.9823C22.4144 12.5924 22.0439 13.1468 21.577 13.6137C21.11 14.0807 20.5556 14.4511 19.9455 14.7039C19.3353 14.9566 18.6814 15.0867 18.021 15.0867C16.6872 15.0867 15.4081 14.5568 14.465 13.6137C13.5219 12.6706 12.9921 11.3915 12.9921 10.0578C12.9921 8.72405 13.5219 7.44493 14.465 6.50183C15.4081 5.55874 16.6872 5.0289 18.021 5.02889Z"
             fill="url(#paint0_linear_2_3)"
             style="fill-opacity:1.0" />
          <path
             id="path2101"
             d="M17.9832 3.36348e-05V9.86482e-05C17.9729 8.29511e-05 17.9627 8.29511e-05 17.9524 9.86482e-05C15.2903 0.00824842 12.7399 1.07149 10.8604 2.95679C8.98085 4.84209 7.92542 7.39566 7.92541 10.0578V18.7458H12.9539L12.9543 18.7467V10.0578C12.9543 8.72406 13.4841 7.44494 14.4272 6.50184C15.3703 5.55874 16.6494 5.02891 17.9832 5.0289C18.6436 5.0289 19.2975 5.15898 19.9076 5.4117C20.5178 5.66443 21.0722 6.03485 21.5391 6.50183C22.0061 6.9688 22.3765 7.52319 22.6293 8.13332C22.882 8.74345 23.0121 9.39739 23.0121 10.0578C23.0121 11.385 22.4874 12.6584 21.5525 13.6004C20.6175 14.5424 19.3481 15.0766 18.021 15.0865C20.015 15.0766 21.924 14.2774 23.3305 12.8639C24.7369 11.4503 25.5265 9.53741 25.5265 7.54335C25.5265 6.55274 25.3314 5.57184 24.9523 4.65664C24.5732 3.74143 24.0176 2.90986 23.3171 2.2094C22.6166 1.50893 21.7851 0.953294 20.8699 0.574206C19.9547 0.195119 18.9738 6.14316e-06 17.9832 7.6294e-06L17.9832 3.36348e-05ZM12.9539 18.7459L12.9538 18.7463H7.93993C7.93993 18.7473 7.99255 19.2399 8.00997 20.0314C8.01083 20.069 8.01153 20.1074 8.01218 20.1463C8.01218 20.1463 8.01218 20.1466 8.01218 20.1466C8.01286 20.1856 8.01342 20.2252 8.0139 20.2655C8.0139 20.2655 8.0139 20.2657 8.0139 20.2657C8.01435 20.306 8.01475 20.3469 8.015 20.3884V20.3887C8.01528 20.4302 8.01543 20.4723 8.01545 20.515V20.5153C8.01545 20.558 8.01546 20.6013 8.01517 20.6452V20.6455C8.01489 20.6894 8.01462 20.7339 8.01417 20.7789C8.01417 20.7789 8.01417 20.7792 8.01417 20.7792C8.01371 20.8242 8.01314 20.8697 8.01233 20.9158V20.9161C7.98534 22.5789 7.76901 24.9307 6.92123 26.995C6.92306 26.9968 9.46758 29.5728 10.2589 34.2074V25.2681C10.2452 25.2639 10.2412 25.2619 10.2285 25.257C10.2114 25.2506 10.1938 25.2426 10.1766 25.234C10.1736 25.2325 10.1708 25.231 10.1679 25.2295C10.1667 25.2288 10.1655 25.2283 10.1643 25.2276C10.1613 25.2261 10.1585 25.2245 10.1556 25.2229C10.1513 25.2205 10.147 25.2181 10.1428 25.2156C10.1414 25.2148 10.1399 25.2141 10.1385 25.2132C10.1355 25.2114 10.1327 25.2096 10.1298 25.2078C10.1295 25.2075 10.129 25.2073 10.1287 25.2071C10.127 25.206 10.1253 25.2049 10.1236 25.2039C10.0557 25.1605 9.99962 25.1046 9.95674 25.0432C9.95606 25.0423 9.95536 25.0414 9.95475 25.0404C9.95231 25.0369 9.95002 25.0333 9.94767 25.0297C9.94566 25.0266 9.94359 25.0236 9.94163 25.0205C9.93977 25.0176 9.93805 25.0147 9.93629 25.0118C9.93377 25.0077 9.93131 25.0036 9.92892 24.9994C9.92779 24.9974 9.92668 24.9955 9.92558 24.9935C9.88633 24.9238 9.86297 24.8501 9.85406 24.7804C9.85378 24.7789 9.85376 24.7774 9.85361 24.7759C9.85225 24.7655 9.85118 24.7552 9.85041 24.745C9.84738 24.7053 9.84902 24.665 9.85405 24.626C9.85458 24.6219 9.85514 24.6179 9.85574 24.6139C9.85625 24.6104 9.85675 24.6069 9.8573 24.6035C9.86146 24.5781 9.86723 24.5532 9.87448 24.5288V24.5285C9.88359 24.4979 9.8951 24.4682 9.90887 24.4396C9.91013 24.437 9.9113 24.4344 9.91256 24.4318C9.91256 24.4316 9.91285 24.4316 9.91285 24.4315C9.91562 24.4258 9.91862 24.4202 9.9217 24.4146C9.93797 24.3847 9.95667 24.3566 9.97732 24.3306C9.97732 24.3306 9.97732 24.3303 9.9776 24.3303C10.002 24.2988 10.0283 24.2712 10.0585 24.246C10.0756 24.2316 10.0933 24.2184 10.1112 24.2063C10.1118 24.2059 10.1123 24.2055 10.1129 24.2052C10.1135 24.2048 10.114 24.2044 10.1146 24.204C10.115 24.2037 10.1155 24.2035 10.1159 24.2032C10.1206 24.1999 10.1253 24.1969 10.1301 24.194C10.132 24.1928 10.1339 24.1917 10.1359 24.1905C10.1362 24.1902 10.1365 24.1901 10.1369 24.1899C10.139 24.1886 10.1412 24.1873 10.1433 24.186C10.1451 24.1848 10.147 24.1836 10.1491 24.1824C10.1516 24.181 10.1544 24.1795 10.1571 24.1781C10.1607 24.1761 10.1643 24.1741 10.1679 24.1722C10.1685 24.1719 10.1691 24.1715 10.1698 24.1712C10.2105 24.1497 10.2512 24.1339 10.2889 24.1244C10.2892 24.1244 10.2892 24.1244 10.2893 24.1241C10.2905 24.1238 10.2911 24.1236 10.2923 24.1233C10.302 24.1205 10.3135 24.1179 10.3257 24.1154C10.3442 24.1113 10.365 24.1075 10.3911 24.1053C10.4147 24.1033 10.4412 24.1019 10.4875 24.1041C10.523 24.1059 10.5709 24.1144 10.6017 24.123C10.6135 24.1263 10.6214 24.1287 10.6296 24.1313C10.6347 24.1329 10.6391 24.1342 10.647 24.1371C10.6646 24.1434 10.658 24.1412 10.6735 24.1472C10.6754 24.1479 10.6899 24.1541 10.6918 24.155C10.6955 24.1568 10.6991 24.1584 10.7027 24.1602C10.7172 24.1671 10.7324 24.1748 10.7449 24.182C10.7497 24.1848 10.7536 24.1877 10.7581 24.1901C10.7661 24.1945 10.7732 24.1995 10.7811 24.2048C10.7972 24.2156 10.8124 24.2271 10.8273 24.2394C10.83 24.2416 10.8328 24.2438 10.8355 24.2461C10.8572 24.2643 10.8769 24.2838 10.8954 24.305C10.9286 24.3424 10.9579 24.3848 10.9812 24.4314C11.0084 24.4859 11.0273 24.5451 11.037 24.6063C11.0382 24.6136 11.0392 24.6209 11.0401 24.6282C11.0449 24.6665 11.0464 24.706 11.0434 24.7449C11.0426 24.7557 11.0414 24.7665 11.04 24.7774C11.04 24.7782 11.0397 24.779 11.0397 24.7798C11.0394 24.7824 11.0389 24.7851 11.0385 24.7877C11.0313 24.8382 11.0166 24.8905 10.9939 24.9418C10.993 24.9437 10.9922 24.9456 10.9913 24.9475C10.9909 24.9485 10.9904 24.9494 10.99 24.9504C10.9863 24.9586 10.9823 24.9668 10.9782 24.975C10.9194 25.0896 10.817 25.1943 10.6796 25.251C10.6745 25.2531 10.6733 25.2538 10.668 25.2558C10.6664 25.2563 10.6621 25.258 10.6621 25.258C10.6532 25.2617 10.6423 25.2657 10.6349 25.268V34.2071C11.4262 29.572 13.9712 26.996 13.9725 26.9947C13.3366 25.4464 13.056 23.7363 12.9441 22.2766C12.9358 22.1686 12.9284 22.0619 12.9219 21.9568V21.9565C12.9154 21.8514 12.9097 21.7478 12.9048 21.6459C12.9048 21.6459 12.9048 21.6459 12.9048 21.6456C12.9023 21.5947 12.9001 21.5442 12.8981 21.4941V21.4938C12.8976 21.4824 12.8972 21.4712 12.8967 21.4598C12.8912 21.3215 12.887 21.1864 12.8841 21.0555C12.8831 21.0084 12.8822 20.9618 12.8814 20.9157C12.8799 20.8214 12.879 20.7295 12.8786 20.6399C12.8782 20.5538 12.8783 20.4698 12.8789 20.3883C12.8797 20.2634 12.8815 20.144 12.884 20.0308C12.8906 19.7291 12.9023 19.4709 12.9143 19.2667C12.9143 19.2667 12.9143 19.2664 12.9143 19.2664C12.9338 18.9351 12.9539 18.7464 12.954 18.7459L12.9539 18.7459ZM10.2589 34.2077V34.2077C10.2589 34.2077 10.2589 34.2077 10.259 34.2077H10.2589ZM10.2589 34.2077C10.2309 34.2301 10.0253 34.4012 10.0178 34.6159C10.0175 34.6212 10.0175 34.6264 10.0175 34.6317C10.0175 34.6369 10.0178 34.6422 10.018 34.6474C10.0246 34.7596 10.088 34.8818 10.2589 35V34.2077ZM10.6348 34.2077H10.6347C10.6347 34.2077 10.6347 34.2077 10.6348 34.2077V34.2077ZM10.6348 34.2078V35C10.8138 34.8762 10.8749 34.748 10.8762 34.6316C10.8762 34.6263 10.8762 34.6212 10.8759 34.616C10.8684 34.4012 10.6627 34.23 10.6348 34.2078Z"
             fill="url(#paint1_linear_2_3)" />
        </g>
      </g>
    </g>
  </g>
  <defs
     id="defs20739">
    <linearGradient
       id="paint0_linear_2_3"
       x1="28.0788"
       y1="10.0578"
       x2="12.9921"
       y2="10.0578"
       gradientUnits="userSpaceOnUse"
       xlink:href="#paint1_linear_2_3">
      <stop
         stop-color="#4ADE80"
         id="stop20729"
         offset="0"
         style="stop-color:#17ffb2;stop-opacity:1;" />
      <stop
         offset="1"
         stop-color="#16A34A"
         id="stop20731"
         style="stop-color:#10b981;stop-opacity:1;" />
    </linearGradient>
    <linearGradient
       id="paint1_linear_2_3"
       x1="7.92543"
       y1="14.7702"
       x2="25.5265"
       y2="14.7702"
       gradientUnits="userSpaceOnUse">
      <stop
         stop-color="#4ADE80"
         id="stop20734"
         offset="0"
         style="stop-color:#17ffb2;stop-opacity:1;" />
      <stop
         offset="1"
         stop-color="#16A34A"
         id="stop20736"
         style="stop-color:#10b981;stop-opacity:1;" />
    </linearGradient>
  </defs>
</svg>
