<?xml version="1.0" encoding="UTF-8" standalone="no"?>
<svg
   width="21.15757"
   height="35"
   viewBox="0 0 21.15757 35"
   fill="none"
   version="1.1"
   id="svg20741"
   sodipodi:docname="logo.svg"
   inkscape:version="1.2 (dc2aedaf03, 2022-05-15)"
   xmlns:inkscape="http://www.inkscape.org/namespaces/inkscape"
   xmlns:sodipodi="http://sodipodi.sourceforge.net/DTD/sodipodi-0.dtd"
   xmlns:xlink="http://www.w3.org/1999/xlink"
   xmlns="http://www.w3.org/2000/svg"
   xmlns:svg="http://www.w3.org/2000/svg">
  <sodipodi:namedview
     id="namedview20743"
     pagecolor="#ffffff"
     bordercolor="#000000"
     borderopacity="0.25"
     inkscape:showpageshadow="2"
     inkscape:pageopacity="0.0"
     inkscape:pagecheckerboard="0"
     inkscape:deskcolor="#d1d1d1"
     showgrid="false"
     inkscape:zoom="12.342857"
     inkscape:cx="24.508102"
     inkscape:cy="19.241898"
     inkscape:window-width="1920"
     inkscape:window-height="1051"
     inkscape:window-x="-9"
     inkscape:window-y="-9"
     inkscape:window-maximized="1"
     inkscape:current-layer="svg20741" />
  <g
     id="logo 1"
     transform="translate(-6.92123)">
    <g
       id="layer1">
      <g
         id="g2103">
        <g
           id="g1786">
          <path
             id="path2099"
             d="M 18.021,0 C 15.3535,6.20617e-6 12.7953,1.05967 10.9091,2.94587 9.02288,4.83207 7.96323,7.3903 7.96323,10.0578 c 0,2.6675 1.05965,5.2257 2.94587,7.1119 1.8862,1.8862 4.4444,2.9459 7.1119,2.9459 1.3208,0 2.6287,-0.2602 3.8489,-0.7656 1.2203,-0.5055 2.3291,-1.2463 3.263,-2.1803 0.934,-0.9339 1.6748,-2.0427 2.1803,-3.263 0.5054,-1.2202 0.7656,-2.5281 0.7656,-3.8489 0,-1.32082 -0.2602,-2.6287 -0.7656,-3.84896 C 26.8077,4.98857 26.0669,3.87981 25.1329,2.94586 24.199,2.01191 23.0902,1.27105 21.8699,0.765596 20.6497,0.260146 19.3418,-1.28867e-6 18.021,0 Z m 0,5.02889 c 0.6604,0 1.3143,0.13008 1.9245,0.38281 0.6101,0.25272 1.1645,0.62315 1.6315,1.09012 0.4669,0.46698 0.8374,1.02135 1.0901,1.63149 0.2527,0.61013 0.3828,1.26407 0.3828,1.92449 0,0.6604 -0.1301,1.3143 -0.3828,1.9245 -0.2527,0.6101 -0.6232,1.1645 -1.0901,1.6314 -0.467,0.467 -1.0214,0.8374 -1.6315,1.0902 -0.6102,0.2527 -1.2641,0.3828 -1.9245,0.3828 -1.3338,0 -2.6129,-0.5299 -3.556,-1.473 -0.9431,-0.9431 -1.4729,-2.2222 -1.4729,-3.5559 0,-1.33375 0.5298,-2.61287 1.4729,-3.55597 0.9431,-0.94309 2.2222,-1.47293 3.556,-1.47294 z"
             fill="url(#paint0_linear_2_3)"
             style="fill:url(#paint0_linear_2_3);fill-opacity:1" />
          <path
             id="path2101"
             d="m 17.9832,3.36348e-5 v 6.50134e-5 c -0.0103,-1.56971e-5 -0.0205,-1.56971e-5 -0.0308,0 C 15.2903,0.00824842 12.7399,1.07149 10.8604,2.95679 8.98085,4.84209 7.92542,7.39566 7.92541,10.0578 v 8.688 h 5.02849 l 4e-4,9e-4 v -8.6889 c 0,-1.33374 0.5298,-2.61286 1.4729,-3.55596 0.9431,-0.9431 2.2222,-1.47293 3.556,-1.47294 0.6604,0 1.3143,0.13008 1.9244,0.3828 0.6102,0.25273 1.1646,0.62315 1.6315,1.09013 0.467,0.46697 0.8374,1.02136 1.0902,1.63149 0.2527,0.61013 0.3828,1.26407 0.3828,1.92448 0,1.3272 -0.5247,2.6006 -1.4596,3.5426 -0.935,0.942 -2.2044,1.4762 -3.5315,1.4861 1.994,-0.0099 3.903,-0.8091 5.3095,-2.2226 1.4064,-1.4136 2.196,-3.32649 2.196,-5.32055 0,-0.99061 -0.1951,-1.97151 -0.5742,-2.88671 C 24.5732,3.74143 24.0176,2.90986 23.3171,2.2094 22.6166,1.50893 21.7851,0.953294 20.8699,0.574206 19.9547,0.195119 18.9738,6.14316e-6 17.9832,7.6294e-6 Z M 12.9539,18.7459 l -1e-4,4e-4 H 7.93993 c 0,10e-4 0.05262,0.4936 0.07004,1.2851 8.6e-4,0.0376 0.00156,0.076 0.00221,0.1149 0,0 0,3e-4 0,3e-4 6.8e-4,0.039 0.00124,0.0786 0.00172,0.1189 0,0 0,2e-4 0,2e-4 4.5e-4,0.0403 8.5e-4,0.0812 0.0011,0.1227 v 3e-4 c 2.8e-4,0.0415 4.3e-4,0.0836 4.5e-4,0.1263 v 3e-4 c 0,0.0427 10e-6,0.086 -2.8e-4,0.1299 v 3e-4 c -2.8e-4,0.0439 -5.5e-4,0.0884 -10e-4,0.1334 0,0 0,3e-4 0,3e-4 -4.6e-4,0.045 -0.00103,0.0905 -0.00184,0.1366 v 3e-4 c -0.02699,1.6628 -0.24332,4.0146 -1.0911,6.0789 0.00183,0.0018 2.54635,2.5778 3.33767,7.2124 v -8.9393 c -0.0137,-0.0042 -0.0177,-0.0062 -0.0304,-0.0111 -0.0171,-0.0064 -0.0347,-0.0144 -0.0519,-0.023 -0.003,-0.0015 -0.0058,-0.003 -0.0087,-0.0045 -0.0012,-7e-4 -0.0024,-0.0012 -0.0036,-0.0019 -0.003,-0.0015 -0.0058,-0.0031 -0.0087,-0.0047 -0.0043,-0.0024 -0.0086,-0.0048 -0.0128,-0.0073 -0.0014,-8e-4 -0.0029,-0.0015 -0.0043,-0.0024 -0.003,-0.0018 -0.0058,-0.0036 -0.0087,-0.0054 -3e-4,-3e-4 -8e-4,-5e-4 -0.0011,-7e-4 C 10.127,25.206 10.1253,25.2049 10.1236,25.2039 10.0557,25.1605 9.99962,25.1046 9.95674,25.0432 9.95606,25.0423 9.95536,25.0414 9.95475,25.0404 9.95231,25.0369 9.95002,25.0333 9.94767,25.0297 9.94566,25.0266 9.94359,25.0236 9.94163,25.0205 9.93977,25.0176 9.93805,25.0147 9.93629,25.0118 9.93377,25.0077 9.93131,25.0036 9.92892,24.9994 9.92779,24.9974 9.92668,24.9955 9.92558,24.9935 9.88633,24.9238 9.86297,24.8501 9.85406,24.7804 9.85378,24.7789 9.85376,24.7774 9.85361,24.7759 9.85225,24.7655 9.85118,24.7552 9.85041,24.745 9.84738,24.7053 9.84902,24.665 9.85405,24.626 c 5.3e-4,-0.0041 0.00109,-0.0081 0.00169,-0.0121 5.1e-4,-0.0035 0.00101,-0.007 0.00156,-0.0104 0.00416,-0.0254 0.00993,-0.0503 0.01718,-0.0747 v -3e-4 C 9.88359,24.4979 9.8951,24.4682 9.90887,24.4396 9.91013,24.437 9.9113,24.4344 9.91256,24.4318 c 0,-2e-4 2.9e-4,-2e-4 2.9e-4,-3e-4 0.00277,-0.0057 0.00577,-0.0113 0.00885,-0.0169 0.01627,-0.0299 0.03497,-0.058 0.05562,-0.084 0,0 0,-3e-4 2.8e-4,-3e-4 0.0244,-0.0315 0.0507,-0.0591 0.0809,-0.0843 0.0171,-0.0144 0.0348,-0.0276 0.0527,-0.0397 6e-4,-4e-4 0.0011,-8e-4 0.0017,-0.0011 6e-4,-4e-4 0.0011,-8e-4 0.0017,-0.0012 4e-4,-3e-4 9e-4,-5e-4 0.0013,-8e-4 0.0047,-0.0033 0.0094,-0.0063 0.0142,-0.0092 0.0019,-0.0012 0.0038,-0.0023 0.0058,-0.0035 3e-4,-3e-4 6e-4,-4e-4 0.001,-6e-4 0.0021,-0.0013 0.0043,-0.0026 0.0064,-0.0039 0.0018,-0.0012 0.0037,-0.0024 0.0058,-0.0036 0.0025,-0.0014 0.0053,-0.0029 0.008,-0.0043 0.0036,-0.002 0.0072,-0.004 0.0108,-0.0059 6e-4,-3e-4 0.0012,-7e-4 0.0019,-0.001 0.0407,-0.0215 0.0814,-0.0373 0.1191,-0.0468 3e-4,0 3e-4,0 4e-4,-3e-4 0.0012,-3e-4 0.0018,-5e-4 0.003,-8e-4 0.0097,-0.0028 0.0212,-0.0054 0.0334,-0.0079 0.0185,-0.0041 0.0393,-0.0079 0.0654,-0.0101 0.0236,-0.002 0.0501,-0.0034 0.0964,-0.0012 0.0355,0.0018 0.0834,0.0103 0.1142,0.0189 0.0118,0.0033 0.0197,0.0057 0.0279,0.0083 0.0051,0.0016 0.0095,0.0029 0.0174,0.0058 0.0176,0.0063 0.011,0.0041 0.0265,0.0101 0.0019,7e-4 0.0164,0.0069 0.0183,0.0078 0.0037,0.0018 0.0073,0.0034 0.0109,0.0052 0.0145,0.0069 0.0297,0.0146 0.0422,0.0218 0.0048,0.0028 0.0087,0.0057 0.0132,0.0081 0.008,0.0044 0.0151,0.0094 0.023,0.0147 0.0161,0.0108 0.0313,0.0223 0.0462,0.0346 0.0027,0.0022 0.0055,0.0044 0.0082,0.0067 0.0217,0.0182 0.0414,0.0377 0.0599,0.0589 0.0332,0.0374 0.0625,0.0798 0.0858,0.1264 0.0272,0.0545 0.0461,0.1137 0.0558,0.1749 0.0012,0.0073 0.0022,0.0146 0.0031,0.0219 0.0048,0.0383 0.0063,0.0778 0.0033,0.1167 -8e-4,0.0108 -0.002,0.0216 -0.0034,0.0325 0,8e-4 -3e-4,0.0016 -3e-4,0.0024 -3e-4,0.0026 -8e-4,0.0053 -0.0012,0.0079 -0.0072,0.0505 -0.0219,0.1028 -0.0446,0.1541 -9e-4,0.0019 -0.0017,0.0038 -0.0026,0.0057 -4e-4,10e-4 -9e-4,0.0019 -0.0013,0.0029 -0.0037,0.0082 -0.0077,0.0164 -0.0118,0.0246 -0.0588,0.1146 -0.1612,0.2193 -0.2986,0.276 -0.0051,0.0021 -0.0063,0.0028 -0.0116,0.0048 -0.0016,5e-4 -0.0059,0.0022 -0.0059,0.0022 -0.0089,0.0037 -0.0198,0.0077 -0.0272,0.01 v 8.9391 c 0.7913,-4.6351 3.3363,-7.2111 3.3376,-7.2124 -0.6359,-1.5483 -0.9165,-3.2584 -1.0284,-4.7181 -0.0083,-0.108 -0.0157,-0.2147 -0.0222,-0.3198 v -3e-4 c -0.0065,-0.1051 -0.0122,-0.2087 -0.0171,-0.3106 0,0 0,0 0,-3e-4 -0.0025,-0.0509 -0.0047,-0.1014 -0.0067,-0.1515 v -3e-4 c -5e-4,-0.0114 -9e-4,-0.0226 -0.0014,-0.034 -0.0055,-0.1383 -0.0097,-0.2734 -0.0126,-0.4043 -10e-4,-0.0471 -0.0019,-0.0937 -0.0027,-0.1398 -0.0015,-0.0943 -0.0024,-0.1862 -0.0028,-0.2758 -4e-4,-0.0861 -3e-4,-0.1701 3e-4,-0.2516 8e-4,-0.1249 0.0026,-0.2443 0.0051,-0.3575 0.0066,-0.3017 0.0183,-0.5599 0.0303,-0.7641 0,0 0,-3e-4 0,-3e-4 0.0195,-0.3313 0.0396,-0.52 0.0397,-0.5205 z m -2.695,15.4618 v 0 c 0,0 0,0 10e-5,0 z m 0,0 c -0.028,0.0224 -0.2336,0.1935 -0.2411,0.4082 -3e-4,0.0053 -3e-4,0.0105 -3e-4,0.0158 0,0.0052 3e-4,0.0105 5e-4,0.0157 0.0066,0.1122 0.07,0.2344 0.2409,0.3526 z m 0.3759,0 h -10e-5 c 0,0 0,0 10e-5,0 z m 0,10e-5 V 35 c 0.179,-0.1238 0.2401,-0.252 0.2414,-0.3684 0,-0.0053 0,-0.0104 -3e-4,-0.0156 -0.0075,-0.2148 -0.2132,-0.386 -0.2411,-0.4082 z"
             fill="url(#paint1_linear_2_3)"
             style="fill:url(#linearGradient320)" />
        </g>
      </g>
    </g>
  </g>
  <defs
     id="defs20739">
    <linearGradient
       id="paint0_linear_2_3"
       x1="28.0788"
       y1="10.0578"
       x2="12.9921"
       y2="10.0578"
       gradientUnits="userSpaceOnUse"
       xlink:href="#paint1_linear_2_3">
      <stop
         stop-color="#4ADE80"
         id="stop20729"
         offset="0"
         style="stop-color:#17ffb2;stop-opacity:1;" />
      <stop
         offset="1"
         stop-color="#16A34A"
         id="stop20731"
         style="stop-color:#10b981;stop-opacity:1;" />
    </linearGradient>
    <linearGradient
       id="paint1_linear_2_3"
       x1="7.9254298"
       y1="14.7702"
       x2="25.526501"
       y2="14.7702"
       gradientUnits="userSpaceOnUse">
      <stop
         stop-color="#4ADE80"
         id="stop20734"
         offset="0"
         style="stop-color:#17ffb2;stop-opacity:1;" />
      <stop
         offset="1"
         stop-color="#16A34A"
         id="stop20736"
         style="stop-color:#10b981;stop-opacity:1;" />
    </linearGradient>
    <linearGradient
       inkscape:collect="always"
       xlink:href="#paint1_linear_2_3"
       id="linearGradient320"
       gradientUnits="userSpaceOnUse"
       x1="7.9254298"
       y1="14.7702"
       x2="25.526501"
       y2="14.7702" />
  </defs>
</svg>
