<?xml version="1.0" standalone="no"?>
<!DOCTYPE svg PUBLIC "-//W3C//DTD SVG 20010904//EN"
 "http://www.w3.org/TR/2001/REC-SVG-20010904/DTD/svg10.dtd">
<svg version="1.0" xmlns="http://www.w3.org/2000/svg"
 width="512.000000pt" height="512.000000pt" viewBox="0 0 512.000000 512.000000"
 preserveAspectRatio="xMidYMid meet">
<metadata>
Created by potrace 1.14, written by Peter Selinger 2001-2017
</metadata>
<g transform="translate(0.000000,512.000000) scale(0.100000,-0.100000)"
fill="#000000" stroke="none">
<path d="M2407 5105 c-471 -75 -880 -375 -1091 -800 -53 -105 -95 -219 -117
-315 -37 -155 -39 -209 -35 -1040 5 -945 5 -1011 1 -1065 -8 -117 -21 -213
-50 -370 -16 -81 -63 -246 -88 -308 -15 -36 -15 -36 21 -79 200 -234 358 -569
433 -913 17 -79 17 -72 18 565 1 639 1 645 -19 658 -47 29 -49 108 -2 138 75
49 167 -29 126 -108 -8 -15 -22 -31 -31 -37 -17 -9 -18 -50 -18 -635 0 -344 3
-626 7 -626 5 0 8 8 9 18 1 28 7 52 39 162 17 58 32 110 34 115 2 6 6 17 9 25
3 8 17 44 30 80 24 65 116 261 126 270 3 3 15 21 25 40 32 59 117 182 163 237
l44 52 -36 113 c-20 62 -38 120 -40 128 -2 8 -10 47 -19 85 -8 39 -18 88 -21
110 -18 122 -25 177 -31 245 -8 82 -9 508 -1 516 3 3 45 -14 94 -37 277 -132
616 -184 876 -133 12 2 48 9 80 15 272 49 572 221 774 444 119 130 200 252
257 385 15 36 32 74 37 85 29 63 75 254 87 360 9 78 8 263 -1 345 -28 239
-147 527 -302 728 -64 84 -315 312 -343 312 -6 0 -12 4 -14 8 -9 25 -285 156
-373 177 -17 4 -24 6 -57 16 -147 43 -436 60 -601 34z m407 -745 c77 -18 224
-93 287 -147 246 -213 328 -534 212 -835 -92 -236 -299 -405 -555 -451 -73
-14 -204 -14 -258 -2 -14 3 -36 8 -50 11 -102 21 -234 99 -330 194 -151 150
-221 326 -215 535 1 55 5 111 8 124 33 131 72 216 137 302 182 236 466 336
764 269z"/>
<path d="M1483 98 c-20 -25 -20 -55 -2 -79 l19 -24 0 58 c0 60 -2 65 -17 45z"/>
<path d="M1554 56 c1 -51 2 -54 19 -39 19 18 22 45 7 74 -18 33 -26 21 -26
-35z"/>
</g>
</svg>
